<svg version="1.1" xmlns="http://www.w3.org/2000/svg" xmlns:xlink="http://www.w3.org/1999/xlink" width="1152.3095703125" height="1150"><defs/><g><g transform="translate(-118,-46) scale(1,1)"><rect fill="#C0C0C0" stroke="none" x="911" y="63" width="170" height="160" opacity="0.2"/></g><g transform="translate(-118,-46) scale(1,1)"><rect fill="#ffffff" stroke="none" x="904" y="56" width="170" height="160"/></g><g transform="translate(-118,-46) scale(1,1)"><path fill="none" stroke="#000000" d="M 904 56 L 1074 56 L 1074 216 L 904 216 L 904 56 Z Z" stroke-miterlimit="10"/></g><g transform="translate(-118,-46) scale(1,1)"><path fill="none" stroke="#000000" d="M 904 81 L 1074 81" stroke-miterlimit="10"/></g><g transform="translate(-118,-46) scale(1,1)"><path fill="none" stroke="#000000" d="M 904 119 L 1074 119" stroke-miterlimit="10"/></g><g transform="translate(-118,-46) scale(1,1)"><g><path fill="none" stroke="none"/><text fill="#000000" stroke="none" font-family="Arial" font-size="13px" font-style="normal" font-weight="bold" text-decoration="none" x="974.1845703125" y="75.5">Point</text></g></g><g transform="translate(-118,-46) scale(1,1)"><g><path fill="none" stroke="none"/><text fill="#000000" stroke="none" font-family="Arial" font-size="13px" font-style="normal" font-weight="normal" text-decoration="none" x="909" y="98.5">-x: double</text></g></g><g transform="translate(-118,-46) scale(1,1)"><g><path fill="none" stroke="none"/><text fill="#000000" stroke="none" font-family="Arial" font-size="13px" font-style="normal" font-weight="normal" text-decoration="none" x="909" y="113.5">-y: double</text></g></g><g transform="translate(-118,-46) scale(1,1)"><g><path fill="none" stroke="none"/><text fill="#000000" stroke="none" font-family="Arial" font-size="13px" font-style="normal" font-weight="normal" text-decoration="none" x="909" y="136.5">+Point(x: double, y: double)</text></g></g><g transform="translate(-118,-46) scale(1,1)"><g><path fill="none" stroke="none"/><text fill="#000000" stroke="none" font-family="Arial" font-size="13px" font-style="normal" font-weight="normal" text-decoration="none" x="909" y="151.5">+getX(): double</text></g></g><g transform="translate(-118,-46) scale(1,1)"><g><path fill="none" stroke="none"/><text fill="#000000" stroke="none" font-family="Arial" font-size="13px" font-style="normal" font-weight="normal" text-decoration="none" x="909" y="166.5">+getY(): double</text></g></g><g transform="translate(-118,-46) scale(1,1)"><g><path fill="none" stroke="none"/><text fill="#000000" stroke="none" font-family="Arial" font-size="13px" font-style="normal" font-weight="normal" text-decoration="none" x="909" y="181.5">+setX(x: double)</text></g></g><g transform="translate(-118,-46) scale(1,1)"><g><path fill="none" stroke="none"/><text fill="#000000" stroke="none" font-family="Arial" font-size="13px" font-style="normal" font-weight="normal" text-decoration="none" x="909" y="196.5">+setY(y: double)</text></g></g><g transform="translate(-118,-46) scale(1,1)"><g><path fill="none" stroke="none"/><text fill="#000000" stroke="none" font-family="Arial" font-size="13px" font-style="normal" font-weight="normal" text-decoration="none" x="909" y="211.5">+toString(): String</text></g></g><g transform="translate(-118,-46) scale(1,1)"><rect fill="#C0C0C0" stroke="none" x="143" y="63" width="218.16162109375" height="175" opacity="0.2"/></g><g transform="translate(-118,-46) scale(1,1)"><rect fill="#ffffff" stroke="none" x="136" y="56" width="218.16162109375" height="175"/></g><g transform="translate(-118,-46) scale(1,1)"><path fill="none" stroke="#000000" d="M 136 56 L 354.16162109375 56 L 354.16162109375 231 L 136 231 L 136 56 Z Z" stroke-miterlimit="10"/></g><g transform="translate(-118,-46) scale(1,1)"><path fill="none" stroke="#000000" d="M 136 81 L 354.16162109375 81" stroke-miterlimit="10"/></g><g transform="translate(-118,-46) scale(1,1)"><path fill="none" stroke="#000000" d="M 136 119 L 354.16162109375 119" stroke-miterlimit="10"/></g><g transform="translate(-118,-46) scale(1,1)"><g><path fill="none" stroke="none"/><text fill="#000000" stroke="none" font-family="Arial" font-size="13px" font-style="normal" font-weight="bold" text-decoration="none" x="233.88037109375" y="75.5">Box</text></g></g><g transform="translate(-118,-46) scale(1,1)"><g><path fill="none" stroke="none"/><text fill="#000000" stroke="none" font-family="Arial" font-size="13px" font-style="normal" font-weight="normal" text-decoration="none" x="141" y="98.5">-lowerLeft: Point</text></g></g><g transform="translate(-118,-46) scale(1,1)"><g><path fill="none" stroke="none"/><text fill="#000000" stroke="none" font-family="Arial" font-size="13px" font-style="normal" font-weight="normal" text-decoration="none" x="141" y="113.5">-upperRight: Point</text></g></g><g transform="translate(-118,-46) scale(1,1)"><g><path fill="none" stroke="none"/><text fill="#000000" stroke="none" font-family="Arial" font-size="13px" font-style="normal" font-weight="normal" text-decoration="none" x="141" y="136.5">+Box(x: Point, y: Point)</text></g></g><g transform="translate(-118,-46) scale(1,1)"><g><path fill="none" stroke="none"/><text fill="#000000" stroke="none" font-family="Arial" font-size="13px" font-style="normal" font-weight="normal" text-decoration="none" x="141" y="151.5">+Box(x: double, y: double)</text></g></g><g transform="translate(-118,-46) scale(1,1)"><g><path fill="none" stroke="none"/><text fill="#000000" stroke="none" font-family="Arial" font-size="13px" font-style="normal" font-weight="normal" text-decoration="none" x="141" y="166.5">+minimumEnlargement(b: Box): Box</text></g></g><g transform="translate(-118,-46) scale(1,1)"><g><path fill="none" stroke="none"/><text fill="#000000" stroke="none" font-family="Arial" font-size="13px" font-style="normal" font-weight="normal" text-decoration="none" x="141" y="181.5">+contains(b: Box): boolean</text></g></g><g transform="translate(-118,-46) scale(1,1)"><g><path fill="none" stroke="none"/><text fill="#000000" stroke="none" font-family="Arial" font-size="13px" font-style="normal" font-weight="normal" text-decoration="none" x="141" y="196.5">+contains(p: Point): boolean</text></g></g><g transform="translate(-118,-46) scale(1,1)"><g><path fill="none" stroke="none"/><text fill="#000000" stroke="none" font-family="Arial" font-size="13px" font-style="normal" font-weight="normal" text-decoration="none" x="141" y="211.5">+intersects(b: Box): boolean</text></g></g><g transform="translate(-118,-46) scale(1,1)"><g><path fill="none" stroke="none"/><text fill="#000000" stroke="none" font-family="Arial" font-size="13px" font-style="normal" font-weight="normal" text-decoration="none" x="141" y="226.5">+getArea(): double</text></g></g><g transform="translate(-118,-46) scale(1,1)"><rect fill="#C0C0C0" stroke="none" x="511" y="223" width="171.24609375" height="130" opacity="0.2"/></g><g transform="translate(-118,-46) scale(1,1)"><rect fill="#ffffff" stroke="none" x="504" y="216" width="171.24609375" height="130"/></g><g transform="translate(-118,-46) scale(1,1)"><path fill="none" stroke="#000000" d="M 504 216 L 675.24609375 216 L 675.24609375 346 L 504 346 L 504 216 Z Z" stroke-miterlimit="10"/></g><g transform="translate(-118,-46) scale(1,1)"><path fill="none" stroke="#000000" d="M 504 241 L 675.24609375 241" stroke-miterlimit="10"/></g><g transform="translate(-118,-46) scale(1,1)"><path fill="none" stroke="#000000" d="M 504 264 L 675.24609375 264" stroke-miterlimit="10"/></g><g transform="translate(-118,-46) scale(1,1)"><g><path fill="none" stroke="none"/><text fill="#000000" stroke="none" font-family="Arial" font-size="13px" font-style="normal" font-weight="bold" text-decoration="none" x="569.758056640625" y="235.5">REntry</text></g></g><g transform="translate(-118,-46) scale(1,1)"><g><path fill="none" stroke="none"/><text fill="#000000" stroke="none" font-family="Arial" font-size="13px" font-style="normal" font-weight="normal" text-decoration="none" x="509" y="258.5">-boundingBox: Box</text></g></g><g transform="translate(-118,-46) scale(1,1)"><g><path fill="none" stroke="none"/><text fill="#000000" stroke="none" font-family="Arial" font-size="13px" font-style="normal" font-weight="normal" text-decoration="none" x="509" y="281.5">+contains(b: Box): boolean</text></g></g><g transform="translate(-118,-46) scale(1,1)"><g><path fill="none" stroke="none"/><text fill="#000000" stroke="none" font-family="Arial" font-size="13px" font-style="normal" font-weight="normal" text-decoration="none" x="509" y="296.5">+contains(p: Point): boolean</text></g></g><g transform="translate(-118,-46) scale(1,1)"><g><path fill="none" stroke="none"/><text fill="#000000" stroke="none" font-family="Arial" font-size="13px" font-style="normal" font-weight="normal" text-decoration="none" x="509" y="311.5">+getBoundingBox(): Box</text></g></g><g transform="translate(-118,-46) scale(1,1)"><g><path fill="none" stroke="none"/><text fill="#000000" stroke="none" font-family="Arial" font-size="13px" font-style="normal" font-weight="normal" text-decoration="none" x="509" y="326.5">+setBoundingBox(b: Box)</text></g></g><g transform="translate(-118,-46) scale(1,1)"><g><path fill="none" stroke="none"/><text fill="#000000" stroke="none" font-family="Arial" font-size="13px" font-style="normal" font-weight="normal" text-decoration="none" x="509" y="341.5">+toString(): String</text></g></g><g transform="translate(-118,-46) scale(1,1)"><rect fill="#C0C0C0" stroke="none" x="559" y="423" width="289.7314453125" height="175" opacity="0.2"/></g><g transform="translate(-118,-46) scale(1,1)"><rect fill="#ffffff" stroke="none" x="552" y="416" width="289.7314453125" height="175"/></g><g transform="translate(-118,-46) scale(1,1)"><path fill="none" stroke="#000000" d="M 552 416 L 841.7314453125 416 L 841.7314453125 591 L 552 591 L 552 416 Z Z" stroke-miterlimit="10"/></g><g transform="translate(-118,-46) scale(1,1)"><path fill="none" stroke="#000000" d="M 552 441 L 841.7314453125 441" stroke-miterlimit="10"/></g><g transform="translate(-118,-46) scale(1,1)"><path fill="none" stroke="#000000" d="M 552 479 L 841.7314453125 479" stroke-miterlimit="10"/></g><g transform="translate(-118,-46) scale(1,1)"><g><path fill="none" stroke="none"/><text fill="#000000" stroke="none" font-family="Arial" font-size="13px" font-style="normal" font-weight="bold" text-decoration="none" x="664.349853515625" y="435.5">RLeafEntry</text></g></g><g transform="translate(-118,-46) scale(1,1)"><g><path fill="none" stroke="none"/><text fill="#000000" stroke="none" font-family="Arial" font-size="13px" font-style="normal" font-weight="normal" text-decoration="none" x="557" y="458.5">-name: String</text></g></g><g transform="translate(-118,-46) scale(1,1)"><g><path fill="none" stroke="none"/><text fill="#000000" stroke="none" font-family="Arial" font-size="13px" font-style="normal" font-weight="normal" text-decoration="none" x="557" y="473.5">-tag: String</text></g></g><g transform="translate(-118,-46) scale(1,1)"><g><path fill="none" stroke="none"/><text fill="#000000" stroke="none" font-family="Arial" font-size="13px" font-style="normal" font-weight="normal" text-decoration="none" x="557" y="496.5">+RLeafEntry(b: Box, n: String, t: String)</text></g></g><g transform="translate(-118,-46) scale(1,1)"><g><path fill="none" stroke="none"/><text fill="#000000" stroke="none" font-family="Arial" font-size="13px" font-style="normal" font-weight="normal" text-decoration="none" x="557" y="511.5">+getName(): String</text></g></g><g transform="translate(-118,-46) scale(1,1)"><g><path fill="none" stroke="none"/><text fill="#000000" stroke="none" font-family="Arial" font-size="13px" font-style="normal" font-weight="normal" text-decoration="none" x="557" y="526.5">+getTag(): String</text></g></g><g transform="translate(-118,-46) scale(1,1)"><g><path fill="none" stroke="none"/><text fill="#000000" stroke="none" font-family="Arial" font-size="13px" font-style="normal" font-weight="normal" text-decoration="none" x="557" y="541.5">+setName(s: String)</text></g></g><g transform="translate(-118,-46) scale(1,1)"><g><path fill="none" stroke="none"/><text fill="#000000" stroke="none" font-family="Arial" font-size="13px" font-style="normal" font-weight="normal" text-decoration="none" x="557" y="556.5">+setTag(s: String)</text></g></g><g transform="translate(-118,-46) scale(1,1)"><g><path fill="none" stroke="none"/><text fill="#000000" stroke="none" font-family="Arial" font-size="13px" font-style="normal" font-weight="normal" text-decoration="none" x="557" y="571.5">+toString(): String</text></g></g><g transform="translate(-118,-46) scale(1,1)"><path fill="none" stroke="#000000" d="M 696 415 L 696 368 L 670 347" stroke-miterlimit="10"/></g><g transform="translate(-118,-46) scale(1,1)"><path fill="#FFFFFF" stroke="none" d="M 691.1019189636318 353.22165701821615 L 670 347 L 680.5219341274355 366.3206858630305"/></g><g transform="translate(-118,-46) scale(1,1)"><path fill="none" stroke="#000000" d="M 691.1019189636318 353.22165701821615 L 670 347 L 680.5219341274355 366.3206858630305 L 691.1019189636318 353.22165701821615" stroke-miterlimit="10"/></g><g transform="translate(-118,-46) scale(1,1)"><rect fill="#C0C0C0" stroke="none" x="919" y="447" width="215" height="115" opacity="0.2"/></g><g transform="translate(-118,-46) scale(1,1)"><rect fill="#ffffff" stroke="none" x="912" y="440" width="215" height="115"/></g><g transform="translate(-118,-46) scale(1,1)"><path fill="none" stroke="#000000" d="M 912 440 L 1127 440 L 1127 555 L 912 555 L 912 440 Z Z" stroke-miterlimit="10"/></g><g transform="translate(-118,-46) scale(1,1)"><path fill="none" stroke="#000000" d="M 912 465 L 1127 465" stroke-miterlimit="10"/></g><g transform="translate(-118,-46) scale(1,1)"><path fill="none" stroke="#000000" d="M 912 488 L 1127 488" stroke-miterlimit="10"/></g><g transform="translate(-118,-46) scale(1,1)"><g><path fill="none" stroke="none"/><text fill="#000000" stroke="none" font-family="Arial" font-size="13px" font-style="normal" font-weight="bold" text-decoration="none" x="977.95458984375" y="459.5">RInternalEntry</text></g></g><g transform="translate(-118,-46) scale(1,1)"><g><path fill="none" stroke="none"/><text fill="#000000" stroke="none" font-family="Arial" font-size="13px" font-style="normal" font-weight="normal" text-decoration="none" x="917" y="482.5">-childOffset: long</text></g></g><g transform="translate(-118,-46) scale(1,1)"><g><path fill="none" stroke="none"/><text fill="#000000" stroke="none" font-family="Arial" font-size="13px" font-style="normal" font-weight="normal" text-decoration="none" x="917" y="505.5">+RInternalEntry(b: Box, child: long)</text></g></g><g transform="translate(-118,-46) scale(1,1)"><g><path fill="none" stroke="none"/><text fill="#000000" stroke="none" font-family="Arial" font-size="13px" font-style="normal" font-weight="normal" text-decoration="none" x="917" y="520.5">+getChild(): long</text></g></g><g transform="translate(-118,-46) scale(1,1)"><g><path fill="none" stroke="none"/><text fill="#000000" stroke="none" font-family="Arial" font-size="13px" font-style="normal" font-weight="normal" text-decoration="none" x="917" y="535.5">+setChild(c: long)</text></g></g><g transform="translate(-118,-46) scale(1,1)"><g><path fill="none" stroke="none"/><text fill="#000000" stroke="none" font-family="Arial" font-size="13px" font-style="normal" font-weight="normal" text-decoration="none" x="917" y="550.5">+toString(): String</text></g></g><g transform="translate(-118,-46) scale(1,1)"><path fill="none" stroke="#000000" d="M 979 439 L 896 320 L 808 288 L 676 284" stroke-miterlimit="10"/></g><g transform="translate(-118,-46) scale(1,1)"><path fill="#FFFFFF" stroke="none" d="M 696.5710292537386 276.2004644085798 L 676 284 L 696.0610187881044 293.03080977450634"/></g><g transform="translate(-118,-46) scale(1,1)"><path fill="none" stroke="#000000" d="M 696.5710292537386 276.2004644085798 L 676 284 L 696.0610187881044 293.03080977450634 L 696.5710292537386 276.2004644085798" stroke-miterlimit="10"/></g><g transform="translate(-118,-46) scale(1,1)"><path fill="none" stroke="#000000" d="M 676 276 L 904 264 L 984 240 L 985 217" stroke-miterlimit="10" stroke-dasharray="3"/></g><g transform="translate(-118,-46) scale(1,1)"><path fill="none" stroke="#000000" d="M 988.764106250815 227.3359326687327 L 985 217 L 980.3530169751094 226.97023313500637" stroke-miterlimit="10"/></g><g transform="translate(-118,-46) scale(1,1)"><path fill="none" stroke="#000000" d="M 503 286 L 320 296 L 256 264 L 253 232" stroke-miterlimit="10"/></g><g transform="translate(-118,-46) scale(1,1)"><path fill="none" stroke="#000000" d="M 258.1397312265216 241.72538754596027 L 253 232 L 249.75745132033396 242.51122628716536" stroke-miterlimit="10"/></g><g transform="translate(-118,-46) scale(1,1)"><path fill="none" stroke="#000000" d="M 355 142 L 903 137" stroke-miterlimit="10"/></g><g transform="translate(-118,-46) scale(1,1)"><path fill="none" stroke="#000000" d="M 892.8761545422043 141.30206382410444 L 903 137 L 892.7993417219864 132.8833787282296" stroke-miterlimit="10"/></g><g transform="translate(-118,-46) scale(1,1)"><rect fill="#C0C0C0" stroke="none" x="135" y="615" width="253.587890625" height="235" opacity="0.2"/></g><g transform="translate(-118,-46) scale(1,1)"><rect fill="#ffffff" stroke="none" x="128" y="608" width="253.587890625" height="235"/></g><g transform="translate(-118,-46) scale(1,1)"><path fill="none" stroke="#000000" d="M 128 608 L 381.587890625 608 L 381.587890625 843 L 128 843 L 128 608 Z Z" stroke-miterlimit="10"/></g><g transform="translate(-118,-46) scale(1,1)"><path fill="none" stroke="#000000" d="M 128 633 L 381.587890625 633" stroke-miterlimit="10"/></g><g transform="translate(-118,-46) scale(1,1)"><path fill="none" stroke="#000000" d="M 128 716 L 381.587890625 716" stroke-miterlimit="10"/></g><g transform="translate(-118,-46) scale(1,1)"><g><path fill="none" stroke="none"/><text fill="#000000" stroke="none" font-family="Arial" font-size="13px" font-style="normal" font-weight="bold" text-decoration="none" x="205.659912109375" y="627.5">RNodePersistent</text></g></g><g transform="translate(-118,-46) scale(1,1)"><g><path fill="none" stroke="none"/><text fill="#000000" stroke="none" font-family="Arial" font-size="13px" font-style="normal" font-weight="normal" text-decoration="none" x="133" y="650.5">«final»-NODESIZE: int</text><path fill="none" stroke="#000000" d="M 133 650.5 L 263.04443359375 650.5" stroke-miterlimit="10"/></g></g><g transform="translate(-118,-46) scale(1,1)"><g><path fill="none" stroke="none"/><text fill="#000000" stroke="none" font-family="Arial" font-size="13px" font-style="normal" font-weight="normal" text-decoration="none" x="133" y="665.5">«final»-LEAFBRANCHINGFACTOR: int</text><path fill="none" stroke="#000000" d="M 133 665.5 L 360.55078125 665.5" stroke-miterlimit="10"/></g></g><g transform="translate(-118,-46) scale(1,1)"><g><path fill="none" stroke="none"/><text fill="#000000" stroke="none" font-family="Arial" font-size="13px" font-style="normal" font-weight="normal" text-decoration="none" x="133" y="680.5">«final»-NODEBRANCHINGFACTOR: int</text><path fill="none" stroke="#000000" d="M 133 680.5 L 365.59716796875 680.5" stroke-miterlimit="10"/></g></g><g transform="translate(-118,-46) scale(1,1)"><g><path fill="none" stroke="none"/><text fill="#000000" stroke="none" font-family="Arial" font-size="13px" font-style="normal" font-weight="normal" text-decoration="none" x="133" y="695.5">-entries: REntry[*]</text></g></g><g transform="translate(-118,-46) scale(1,1)"><g><path fill="none" stroke="none"/><text fill="#000000" stroke="none" font-family="Arial" font-size="13px" font-style="normal" font-weight="normal" text-decoration="none" x="133" y="710.5">-isLeaf: Boolean</text></g></g><g transform="translate(-118,-46) scale(1,1)"><g><path fill="none" stroke="none"/><text fill="#000000" stroke="none" font-family="Arial" font-size="13px" font-style="normal" font-weight="normal" text-decoration="none" x="133" y="733.5">+RNodePersistent(e: REntry[*], l: boolean)</text></g></g><g transform="translate(-118,-46) scale(1,1)"><g><path fill="none" stroke="none"/><text fill="#000000" stroke="none" font-family="Arial" font-size="13px" font-style="normal" font-weight="normal" text-decoration="none" x="133" y="748.5">+RNodePersistent(data: byte[*])</text></g></g><g transform="translate(-118,-46) scale(1,1)"><g><path fill="none" stroke="none"/><text fill="#000000" stroke="none" font-family="Arial" font-size="13px" font-style="normal" font-weight="normal" text-decoration="none" x="133" y="763.5">+addEntry(e: REntry)</text></g></g><g transform="translate(-118,-46) scale(1,1)"><g><path fill="none" stroke="none"/><text fill="#000000" stroke="none" font-family="Arial" font-size="13px" font-style="normal" font-weight="normal" text-decoration="none" x="133" y="778.5">+isFull(): boolean</text></g></g><g transform="translate(-118,-46) scale(1,1)"><g><path fill="none" stroke="none"/><text fill="#000000" stroke="none" font-family="Arial" font-size="13px" font-style="normal" font-weight="normal" text-decoration="none" x="133" y="793.5">+toByte(): byte[*]</text></g></g><g transform="translate(-118,-46) scale(1,1)"><g><path fill="none" stroke="none"/><text fill="#000000" stroke="none" font-family="Arial" font-size="13px" font-style="normal" font-weight="normal" text-decoration="none" x="133" y="808.5">+remove(lnodeOffset: long)</text></g></g><g transform="translate(-118,-46) scale(1,1)"><g><path fill="none" stroke="none"/><text fill="#000000" stroke="none" font-family="Arial" font-size="13px" font-style="normal" font-weight="normal" text-decoration="none" x="133" y="823.5">+isLeaf(): boolean</text></g></g><g transform="translate(-118,-46) scale(1,1)"><g><path fill="none" stroke="none"/><text fill="#000000" stroke="none" font-family="Arial" font-size="13px" font-style="normal" font-weight="normal" text-decoration="none" x="133" y="838.5">+toString(): String</text></g></g><g transform="translate(-118,-46) scale(1,1)"><path fill="none" stroke="#000000" d="M 251 607 L 248 464 L 352 336 L 503 301" stroke-miterlimit="10"/></g><g transform="translate(-118,-46) scale(1,1)"><path fill="none" stroke="#000000" d="M 494.0503102427475 307.39554948764606 L 503 301 L 492.1492772710023 299.19395009525965" stroke-miterlimit="10"/></g><g transform="translate(-118,-46) scale(1,1)"><g><path fill="none" stroke="none"/><text fill="#000000" stroke="none" font-family="Arial" font-size="13px" font-style="normal" font-weight="normal" text-decoration="none" x="372.94775390625" y="315.5">+0..*</text></g></g><g transform="translate(-118,-46) scale(1,1)"><rect fill="#C0C0C0" stroke="none" x="927" y="615" width="340.3095703125" height="190" opacity="0.2"/></g><g transform="translate(-118,-46) scale(1,1)"><rect fill="#ffffff" stroke="none" x="920" y="608" width="340.3095703125" height="190"/></g><g transform="translate(-118,-46) scale(1,1)"><path fill="none" stroke="#000000" d="M 920 608 L 1260.3095703125 608 L 1260.3095703125 798 L 920 798 L 920 608 Z Z" stroke-miterlimit="10"/></g><g transform="translate(-118,-46) scale(1,1)"><path fill="none" stroke="#000000" d="M 920 633 L 1260.3095703125 633" stroke-miterlimit="10"/></g><g transform="translate(-118,-46) scale(1,1)"><path fill="none" stroke="#000000" d="M 920 671 L 1260.3095703125 671" stroke-miterlimit="10"/></g><g transform="translate(-118,-46) scale(1,1)"><g><path fill="none" stroke="none"/><text fill="#000000" stroke="none" font-family="Arial" font-size="13px" font-style="normal" font-weight="bold" text-decoration="none" x="1063.7802734375" y="627.5">IndexFile</text></g></g><g transform="translate(-118,-46) scale(1,1)"><g><path fill="none" stroke="none"/><text fill="#000000" stroke="none" font-family="Arial" font-size="13px" font-style="normal" font-weight="normal" text-decoration="none" x="925" y="650.5">-indexHandle: RandomAccessFile</text></g></g><g transform="translate(-118,-46) scale(1,1)"><g><path fill="none" stroke="none"/><text fill="#000000" stroke="none" font-family="Arial" font-size="13px" font-style="normal" font-weight="normal" text-decoration="none" x="925" y="665.5">-rootOffset: long</text></g></g><g transform="translate(-118,-46) scale(1,1)"><g><path fill="none" stroke="none"/><text fill="#000000" stroke="none" font-family="Arial" font-size="13px" font-style="normal" font-weight="normal" text-decoration="none" x="925" y="688.5">+IndexFile(filename: String)</text></g></g><g transform="translate(-118,-46) scale(1,1)"><g><path fill="none" stroke="none"/><text fill="#000000" stroke="none" font-family="Arial" font-size="13px" font-style="normal" font-weight="normal" text-decoration="none" x="925" y="703.5">+getNode(offset: long): RNodePersistent</text></g></g><g transform="translate(-118,-46) scale(1,1)"><g><path fill="none" stroke="none"/><text fill="#000000" stroke="none" font-family="Arial" font-size="13px" font-style="normal" font-weight="normal" text-decoration="none" x="925" y="718.5">+insertNode(node: RNodePersistent)</text></g></g><g transform="translate(-118,-46) scale(1,1)"><g><path fill="none" stroke="none"/><text fill="#000000" stroke="none" font-family="Arial" font-size="13px" font-style="normal" font-weight="normal" text-decoration="none" x="925" y="733.5">+insertNodeAtOffset(node: RNodePersistent, offset: long)</text></g></g><g transform="translate(-118,-46) scale(1,1)"><g><path fill="none" stroke="none"/><text fill="#000000" stroke="none" font-family="Arial" font-size="13px" font-style="normal" font-weight="normal" text-decoration="none" x="925" y="748.5">+close()</text></g></g><g transform="translate(-118,-46) scale(1,1)"><g><path fill="none" stroke="none"/><text fill="#000000" stroke="none" font-family="Arial" font-size="13px" font-style="normal" font-weight="normal" text-decoration="none" x="925" y="763.5">+getRootOffset(): long</text></g></g><g transform="translate(-118,-46) scale(1,1)"><g><path fill="none" stroke="none"/><text fill="#000000" stroke="none" font-family="Arial" font-size="13px" font-style="normal" font-weight="normal" text-decoration="none" x="925" y="778.5">+setRootOffset(offset: long)</text></g></g><g transform="translate(-118,-46) scale(1,1)"><g><path fill="none" stroke="none"/><text fill="#000000" stroke="none" font-family="Arial" font-size="13px" font-style="normal" font-weight="normal" text-decoration="none" x="925" y="793.5">+getRoot(): RNodePersistent</text></g></g><g transform="translate(-118,-46) scale(1,1)"><rect fill="#C0C0C0" stroke="none" x="463" y="775" width="413.3076171875" height="220" opacity="0.2"/></g><g transform="translate(-118,-46) scale(1,1)"><rect fill="#ffffff" stroke="none" x="456" y="768" width="413.3076171875" height="220"/></g><g transform="translate(-118,-46) scale(1,1)"><path fill="none" stroke="#000000" d="M 456 768 L 869.3076171875 768 L 869.3076171875 988 L 456 988 L 456 768 Z Z" stroke-miterlimit="10"/></g><g transform="translate(-118,-46) scale(1,1)"><path fill="none" stroke="#000000" d="M 456 793 L 869.3076171875 793" stroke-miterlimit="10"/></g><g transform="translate(-118,-46) scale(1,1)"><path fill="none" stroke="#000000" d="M 456 846 L 869.3076171875 846" stroke-miterlimit="10"/></g><g transform="translate(-118,-46) scale(1,1)"><g><path fill="none" stroke="none"/><text fill="#000000" stroke="none" font-family="Arial" font-size="13px" font-style="normal" font-weight="bold" text-decoration="none" x="615.69384765625" y="787.5">RTreePersistent</text></g></g><g transform="translate(-118,-46) scale(1,1)"><g><path fill="none" stroke="none"/><text fill="#000000" stroke="none" font-family="Arial" font-size="13px" font-style="normal" font-weight="normal" text-decoration="none" x="461" y="810.5">-indexFile: IndexFile</text></g></g><g transform="translate(-118,-46) scale(1,1)"><g><path fill="none" stroke="none"/><text fill="#000000" stroke="none" font-family="Arial" font-size="13px" font-style="normal" font-weight="normal" text-decoration="none" x="461" y="825.5">-findResults: RLeafEntry[*]</text></g></g><g transform="translate(-118,-46) scale(1,1)"><g><path fill="none" stroke="none"/><text fill="#000000" stroke="none" font-family="Arial" font-size="13px" font-style="normal" font-weight="normal" text-decoration="none" x="461" y="840.5">-tagSet: String[*]</text></g></g><g transform="translate(-118,-46) scale(1,1)"><g><path fill="none" stroke="none"/><text fill="#000000" stroke="none" font-family="Arial" font-size="13px" font-style="normal" font-weight="normal" text-decoration="none" x="461" y="863.5">+buildTree(filename: String): boolean</text></g></g><g transform="translate(-118,-46) scale(1,1)"><g><path fill="none" stroke="none"/><text fill="#000000" stroke="none" font-family="Arial" font-size="13px" font-style="normal" font-weight="normal" text-decoration="none" x="461" y="878.5">+buildTreefromOSM(filename: String): boolean</text></g></g><g transform="translate(-118,-46) scale(1,1)"><g><path fill="none" stroke="none"/><text fill="#000000" stroke="none" font-family="Arial" font-size="13px" font-style="normal" font-weight="normal" text-decoration="none" x="461" y="893.5">+find(tag: String, range: double, x: double, y: double): Object</text></g></g><g transform="translate(-118,-46) scale(1,1)"><g><path fill="none" stroke="none"/><text fill="#000000" stroke="none" font-family="Arial" font-size="13px" font-style="normal" font-weight="normal" text-decoration="none" x="461" y="908.5">-find(tag: String, box: Box, nodeOffset: long)</text></g></g><g transform="translate(-118,-46) scale(1,1)"><g><path fill="none" stroke="none"/><text fill="#000000" stroke="none" font-family="Arial" font-size="13px" font-style="normal" font-weight="normal" text-decoration="none" x="461" y="923.5">+add(name: string, tag: String, x: double, y: double)</text></g></g><g transform="translate(-118,-46) scale(1,1)"><g><path fill="none" stroke="none"/><text fill="#000000" stroke="none" font-family="Arial" font-size="13px" font-style="normal" font-weight="normal" text-decoration="none" x="461" y="938.5">+getAllTags(): Set&lt;String&gt;</text></g></g><g transform="translate(-118,-46) scale(1,1)"><g><path fill="none" stroke="none"/><text fill="#000000" stroke="none" font-family="Arial" font-size="13px" font-style="normal" font-weight="normal" text-decoration="none" x="461" y="953.5">-insert(nodeOffset: long, rootOffset: long, entry: RLeafEntry)</text></g></g><g transform="translate(-118,-46) scale(1,1)"><g><path fill="none" stroke="none"/><text fill="#000000" stroke="none" font-family="Arial" font-size="13px" font-style="normal" font-weight="normal" text-decoration="none" x="461" y="968.5">-split(node: RNodePersistent, nodeOffset: long, rootOffset: long): long</text></g></g><g transform="translate(-118,-46) scale(1,1)"><g><path fill="none" stroke="none"/><text fill="#000000" stroke="none" font-family="Arial" font-size="13px" font-style="normal" font-weight="normal" text-decoration="none" x="461" y="983.5">+cleanUp()</text></g></g><g transform="translate(-118,-46) scale(1,1)"><path fill="none" stroke="#000000" d="M 919 619 L 912 616 L 392 616 L 383 623" stroke-miterlimit="10" stroke-dasharray="3"/></g><g transform="translate(-118,-46) scale(1,1)"><path fill="none" stroke="#000000" d="M 388.43753601960987 613.4379289881613 L 383 623 L 393.60632384707066 620.0835133377539" stroke-miterlimit="10"/></g><g transform="translate(-118,-46) scale(1,1)"><rect fill="#C0C0C0" stroke="none" x="303" y="1063" width="357" height="130" opacity="0.2"/></g><g transform="translate(-118,-46) scale(1,1)"><rect fill="#ffffff" stroke="none" x="296" y="1056" width="357" height="130"/></g><g transform="translate(-118,-46) scale(1,1)"><path fill="none" stroke="#000000" d="M 296 1056 L 653 1056 L 653 1186 L 296 1186 L 296 1056 Z Z" stroke-miterlimit="10"/></g><g transform="translate(-118,-46) scale(1,1)"><path fill="none" stroke="#000000" d="M 296 1094 L 653 1094" stroke-miterlimit="10"/></g><g transform="translate(-118,-46) scale(1,1)"><path fill="none" stroke="#000000" d="M 296 1104 L 653 1104" stroke-miterlimit="10"/></g><g transform="translate(-118,-46) scale(1,1)"><g><path fill="none" stroke="none"/><text fill="#000000" stroke="none" font-family="Arial" font-size="13px" font-style="normal" font-weight="normal" text-decoration="none" x="442.339599609375" y="1073.5">«interface»</text></g></g><g transform="translate(-118,-46) scale(1,1)"><g><path fill="none" stroke="none"/><text fill="#000000" stroke="none" font-family="Arial" font-size="13px" font-style="normal" font-weight="bold" text-decoration="none" x="434.036865234375" y="1088.5">Requirements</text></g></g><g transform="translate(-118,-46) scale(1,1)"><g><path fill="none" stroke="none"/><text fill="#000000" stroke="none" font-family="Arial" font-size="13px" font-style="normal" font-weight="normal" text-decoration="none" x="301" y="1121.5">+buildTree(name: String): boolean</text></g></g><g transform="translate(-118,-46) scale(1,1)"><g><path fill="none" stroke="none"/><text fill="#000000" stroke="none" font-family="Arial" font-size="13px" font-style="normal" font-weight="normal" text-decoration="none" x="301" y="1136.5">+buildTreeFromOSM(filename: String): boolean</text></g></g><g transform="translate(-118,-46) scale(1,1)"><g><path fill="none" stroke="none"/><text fill="#000000" stroke="none" font-family="Arial" font-size="13px" font-style="normal" font-weight="normal" text-decoration="none" x="301" y="1151.5">+find(tag: String, range: double, x: double, y: double): Object</text></g></g><g transform="translate(-118,-46) scale(1,1)"><g><path fill="none" stroke="none"/><text fill="#000000" stroke="none" font-family="Arial" font-size="13px" font-style="normal" font-weight="normal" text-decoration="none" x="301" y="1166.5">+add(name: string, tag: String, x: double, y: double)</text></g></g><g transform="translate(-118,-46) scale(1,1)"><g><path fill="none" stroke="none"/><text fill="#000000" stroke="none" font-family="Arial" font-size="13px" font-style="normal" font-weight="normal" text-decoration="none" x="301" y="1181.5">+getAllTags(): Set&lt;String&gt;</text></g></g><g transform="translate(-118,-46) scale(1,1)"><path fill="none" stroke="#000000" d="M 296 1055 L 256 1040 L 256 944 L 455 912" stroke-miterlimit="10" stroke-dasharray="3"/></g><g transform="translate(-118,-46) scale(1,1)"><path fill="none" stroke="#000000" d="M 445.63454537224106 917.7695978729362 L 455 912 L 444.2979017431441 909.4573453044893" stroke-miterlimit="10"/></g><g transform="translate(-118,-46) scale(1,1)"><path fill="none" stroke="#000000" d="M 672 767 L 688 592" stroke-miterlimit="10"/></g><g transform="translate(-118,-46) scale(1,1)"><path fill="none" stroke="#000000" d="M 691.2667337129589 602.5037350903675 L 688 592 L 682.8826672505779 601.7371918709499" stroke-miterlimit="10"/></g><g transform="translate(-118,-46) scale(1,1)"><g><path fill="none" stroke="none"/><text fill="#000000" stroke="none" font-family="Arial" font-size="13px" font-style="normal" font-weight="normal" text-decoration="none" x="694.94775390625" y="604.5">+0..*</text></g></g><g transform="translate(-118,-46) scale(1,1)"><path fill="none" stroke="#000000" d="M 919 737 L 840 752 L 819 767" stroke-miterlimit="10"/></g><g transform="translate(-118,-46) scale(1,1)"><path fill="#000000" stroke="none" d="M 824.8229761917047 757.6676397266908 L 819 767 L 829.7164411855751 764.5184907181093 L 836.9021363665481 754.2127597381799"/></g><g transform="translate(-118,-46) scale(1,1)"><path fill="none" stroke="#000000" d="M 824.8229761917047 757.6676397266908 L 819 767 L 829.7164411855751 764.5184907181093 L 836.9021363665481 754.2127597381799 L 824.8229761917047 757.6676397266908" stroke-miterlimit="10"/></g><g transform="translate(-118,-46) scale(1,1)"><g><path fill="none" stroke="none"/><text fill="#000000" stroke="none" font-family="Arial" font-size="13px" font-style="normal" font-weight="normal" text-decoration="none" x="835.089111328125" y="739.5">+1</text></g></g><g transform="translate(-118,-46) scale(1,1)"><path fill="none" stroke="#000000" d="M 498 767 L 488 760 L 383 744" stroke-miterlimit="10" stroke-dasharray="3"/></g><g transform="translate(-118,-46) scale(1,1)"><path fill="none" stroke="#000000" d="M 393.68083256358267 741.3694457335549 L 383 744 L 392.4125718945099 749.6924063743448" stroke-miterlimit="10"/></g><g transform="translate(-118,-46) scale(1,1)"><rect fill="#C0C0C0" stroke="none" x="743" y="1063" width="209.49072265625" height="130" opacity="0.2"/></g><g transform="translate(-118,-46) scale(1,1)"><rect fill="#ffffff" stroke="none" x="736" y="1056" width="209.49072265625" height="130"/></g><g transform="translate(-118,-46) scale(1,1)"><path fill="none" stroke="#000000" d="M 736 1056 L 945.49072265625 1056 L 945.49072265625 1186 L 736 1186 L 736 1056 Z Z" stroke-miterlimit="10"/></g><g transform="translate(-118,-46) scale(1,1)"><path fill="none" stroke="#000000" d="M 736 1081 L 945.49072265625 1081" stroke-miterlimit="10"/></g><g transform="translate(-118,-46) scale(1,1)"><path fill="none" stroke="#000000" d="M 736 1134 L 945.49072265625 1134" stroke-miterlimit="10"/></g><g transform="translate(-118,-46) scale(1,1)"><g><path fill="none" stroke="none"/><text fill="#000000" stroke="none" font-family="Arial" font-size="13px" font-style="normal" font-weight="bold" text-decoration="none" x="773.180908203125" y="1075.5">CommandLineInterface</text></g></g><g transform="translate(-118,-46) scale(1,1)"><g><path fill="none" stroke="none"/><text fill="#000000" stroke="none" font-family="Arial" font-size="13px" font-style="normal" font-weight="normal" text-decoration="none" x="741" y="1098.5">-rTree: RTreePersistent</text><path fill="none" stroke="#000000" d="M 741 1098.5 L 877.53173828125 1098.5" stroke-miterlimit="10"/></g></g><g transform="translate(-118,-46) scale(1,1)"><g><path fill="none" stroke="none"/><text fill="#000000" stroke="none" font-family="Arial" font-size="13px" font-style="normal" font-weight="normal" text-decoration="none" x="741" y="1113.5">-scan: Scanner</text><path fill="none" stroke="#000000" d="M 741 1113.5 L 828.4326171875 1113.5" stroke-miterlimit="10"/></g></g><g transform="translate(-118,-46) scale(1,1)"><g><path fill="none" stroke="none"/><text fill="#000000" stroke="none" font-family="Arial" font-size="13px" font-style="normal" font-weight="normal" text-decoration="none" x="741" y="1128.5">«final»-HELPTEXT: String</text><path fill="none" stroke="#000000" d="M 741 1128.5 L 892.00439453125 1128.5" stroke-miterlimit="10"/></g></g><g transform="translate(-118,-46) scale(1,1)"><g><path fill="none" stroke="none"/><text fill="#000000" stroke="none" font-family="Arial" font-size="13px" font-style="normal" font-weight="normal" text-decoration="none" x="741" y="1151.5">+processCommand(args: String[*])</text><path fill="none" stroke="#000000" d="M 741 1151.5 L 941.49072265625 1151.5" stroke-miterlimit="10"/></g></g><g transform="translate(-118,-46) scale(1,1)"><g><path fill="none" stroke="none"/><text fill="#000000" stroke="none" font-family="Arial" font-size="13px" font-style="normal" font-weight="normal" text-decoration="none" x="741" y="1166.5">+run()</text><path fill="none" stroke="#000000" d="M 741 1166.5 L 776.0390625 1166.5" stroke-miterlimit="10"/></g></g><g transform="translate(-118,-46) scale(1,1)"><g><path fill="none" stroke="none"/><text fill="#000000" stroke="none" font-family="Arial" font-size="13px" font-style="normal" font-weight="normal" text-decoration="none" x="741" y="1181.5">+main(args: String[*])</text><path fill="none" stroke="#000000" d="M 741 1181.5 L 864.1826171875 1181.5" stroke-miterlimit="10"/></g></g><g transform="translate(-118,-46) scale(1,1)"><path fill="none" stroke="#000000" d="M 870 913 L 960 928 L 976 1032 L 941 1055" stroke-miterlimit="10"/></g><g transform="translate(-118,-46) scale(1,1)"><path fill="#000000" stroke="none" d="M 947.1812290018288 1045.9009666432664 L 941 1055 L 951.804777132049 1052.936800754471 L 959.385520553428 1042.9180864934615"/></g><g transform="translate(-118,-46) scale(1,1)"><path fill="none" stroke="#000000" d="M 947.1812290018288 1045.9009666432664 L 941 1055 L 951.804777132049 1052.936800754471 L 959.385520553428 1042.9180864934615 L 947.1812290018288 1045.9009666432664" stroke-miterlimit="10"/></g><g transform="translate(-118,-46) scale(1,1)"><g><path fill="none" stroke="none"/><text fill="#000000" stroke="none" font-family="Arial" font-size="13px" font-style="normal" font-weight="normal" text-decoration="none" x="974.089111328125" y="983.5">+1</text></g></g></g></svg>